<svg width="16" height="16" viewBox="0 0 16 16" fill="none" xmlns="http://www.w3.org/2000/svg">
<path d="M3.14105 15.4542C1.64948 15.4542 0.436035 14.2407 0.436035 12.7492V3.03192C0.436035 1.54031 1.64948 0.326904 3.14105 0.326904H12.8583C14.3499 0.326904 15.5634 1.54031 15.5634 3.03192V12.7492C15.5634 14.2407 14.3499 15.4542 12.8583 15.4542H3.14105ZM1.66211 12.7492C1.66211 13.5646 2.32544 14.2281 3.14105 14.2281H12.8583C13.6738 14.2281 14.3372 13.5646 14.3372 12.7492V5.46695H1.66211V12.7492ZM14.3372 4.24081V3.03192C14.3372 2.21646 13.6738 1.55298 12.8583 1.55298H12.6841V3.23438C12.6841 3.57233 12.4091 3.84741 12.071 3.84741C11.733 3.84741 11.4579 3.57233 11.4579 3.23438V1.55298H4.54138V3.23438C4.54138 3.57233 4.2663 3.84741 3.92828 3.84741C3.59021 3.84741 3.31519 3.57233 3.31519 3.23438V1.55298H3.14105C2.32544 1.55298 1.66211 2.21646 1.66211 3.03192V4.24081H14.3372Z" fill="#8D9098"/>
<path d="M7.40588 12.5488C7.36414 12.5488 7.32263 12.5329 7.29077 12.5012L4.76392 9.9742C4.70044 9.91066 4.70044 9.80763 4.76392 9.74409L5.38269 9.12526C5.44373 9.06416 5.55188 9.06416 5.61292 9.12526L7.40588 10.9183L10.386 7.93837C10.4493 7.87471 10.5525 7.87471 10.6161 7.93837L11.2347 8.55714C11.2655 8.58766 11.2825 8.6291 11.2825 8.6722C11.2825 8.71535 11.2655 8.75685 11.2347 8.78725L7.521 12.5012C7.48926 12.5329 7.44751 12.5488 7.40588 12.5488Z" fill="#8D9098"/>
</svg>
