<svg width="17" height="11" viewBox="0 0 17 11" fill="none" xmlns="http://www.w3.org/2000/svg">
<path d="M16.0349 7.55835H7.83191L7.71692 7.21631C7.38501 6.22034 6.46399 5.54236 5.4259 5.52832H5.39197C4.33691 5.52832 3.40698 6.20331 3.06897 7.21631L2.95496 7.55835H0.459961C0.205933 7.55835 0 7.76434 0 8.01831C0 8.27234 0.205933 8.47931 0.459961 8.47931H2.96094L3.07996 8.81134C3.42395 9.78033 4.33997 10.4393 5.35901 10.4533C6.44299 10.4393 7.35693 9.78033 7.703 8.81134L7.82092 8.47931H16.0349C16.2889 8.47931 16.495 8.27332 16.495 8.01935C16.495 7.76532 16.2889 7.55835 16.0349 7.55835ZM6.45691 9.13135C6.18201 9.38831 5.81299 9.53534 5.43799 9.53534L5.38391 9.5343C4.56995 9.51532 3.90991 8.8363 3.91394 8.01935C3.91895 7.61334 4.08899 7.2243 4.38391 6.95032C4.66394 6.67932 5.04089 6.52032 5.43896 6.51031C5.87195 6.52234 6.26001 6.6983 6.53601 6.99432C7.10193 7.60632 7.06592 8.56335 6.45691 9.13135Z" fill="#BABABA"/>
<path d="M16.0349 1.9414H14.778L14.6599 1.60937C14.3209 0.660399 13.422 0.0144029 12.424 0.00036481C11.439 -0.0176406 10.475 0.632384 10.125 1.61041L10.005 1.9414H0.459961C0.205933 1.9414 0 2.1474 0 2.40137C0 2.65539 0.205933 2.86236 0.459961 2.86236H9.99695L10.1129 3.19836C10.4449 4.16437 11.3469 4.82336 12.3579 4.83636C13.434 4.82336 14.335 4.16437 14.6659 3.1994L14.781 2.86236H16.0349C16.2889 2.86236 16.495 2.65637 16.495 2.4024C16.495 2.14838 16.2889 1.9414 16.0349 1.9414ZM13.453 3.50537C13.1759 3.76642 12.804 3.91339 12.4249 3.91339L12.3719 3.91241C11.552 3.90637 10.881 3.22137 10.8879 2.38739C10.892 1.98236 11.053 1.60437 11.3419 1.32239C11.6289 1.03839 12.0239 0.859374 12.4159 0.889403C12.833 0.905394 13.2119 1.06738 13.502 1.34637C14.09 1.97339 14.0599 2.93341 13.453 3.50537Z" fill="#BABABA"/>
</svg>
