<svg width="19" height="13" viewBox="0 0 19 13" fill="none" xmlns="http://www.w3.org/2000/svg">
<path d="M17.1589 8.78153H9.31592C8.92896 7.61856 7.85095 6.76853 6.55701 6.75052C5.23401 6.73252 4.11499 7.59055 3.71802 8.78153H1.58398C1.05396 8.78153 0.624023 9.21152 0.624023 9.74155C0.624023 10.2716 1.05396 10.7025 1.58398 10.7025H3.73303C4.13599 11.8365 5.20203 12.6595 6.47595 12.6765H6.55701C7.82703 12.6595 8.89294 11.8376 9.297 10.7025H17.1589C17.689 10.7025 18.119 10.2726 18.119 9.74253C18.119 9.2125 17.689 8.78153 17.1589 8.78153ZM7.23901 10.4886C7.047 10.6695 6.79102 10.7666 6.52698 10.7575H6.521C5.97192 10.7445 5.53503 10.2945 5.53796 9.74552C5.53992 9.47757 5.65295 9.22257 5.849 9.03952C6.04395 8.85056 6.30396 8.74057 6.57593 8.73355L6.57898 8.73453C6.85095 8.74155 7.10803 8.85855 7.29297 9.05857C7.67297 9.46854 7.64893 10.1086 7.23901 10.4886Z" fill="#00BB6E"/>
<path d="M17.1589 2.26466H16.255C15.856 1.14967 14.808 0.341629 13.5549 0.323624C12.2739 0.306656 11.187 1.12264 10.778 2.26466H1.58398C1.05396 2.26466 0.624023 2.69466 0.624023 3.22463V3.22566C0.624023 3.75563 1.05396 4.18562 1.58398 4.18562H10.765C11.1539 5.31764 12.209 6.14265 13.475 6.15962H13.5549C14.817 6.14265 15.8729 5.31966 16.2629 4.18562H17.1589C17.689 4.18562 18.119 3.75563 18.119 3.22566V3.22463C18.119 2.69466 17.689 2.26466 17.1589 2.26466ZM14.234 3.96468C14.0399 4.14766 13.781 4.24562 13.515 4.23665C12.9559 4.23067 12.507 3.77364 12.5129 3.21468C12.5179 2.65566 12.976 2.20766 13.535 2.21266C13.813 2.22267 14.077 2.33565 14.278 2.52968C14.662 2.93764 14.642 3.58064 14.234 3.96468Z" fill="#00BB6E"/>
</svg>
