<svg width="16" height="16" viewBox="0 0 16 16" fill="none" xmlns="http://www.w3.org/2000/svg">
<path d="M3.14154 15.454C1.64996 15.454 0.436523 14.2405 0.436523 12.749V3.03168C0.436523 1.54007 1.64996 0.32666 3.14154 0.32666H12.8588C14.3503 0.32666 15.5638 1.54007 15.5638 3.03168V12.749C15.5638 14.2405 14.3503 15.454 12.8588 15.454H3.14154ZM1.6626 12.749C1.6626 13.5644 2.32593 14.2278 3.14154 14.2278H12.8588C13.6743 14.2278 14.3376 13.5644 14.3376 12.749V5.46671H1.6626V12.749ZM14.3376 4.24057V3.03168C14.3376 2.21622 13.6743 1.55273 12.8588 1.55273H12.6846V3.23413C12.6846 3.57208 12.4096 3.84717 12.0715 3.84717C11.7335 3.84717 11.4584 3.57208 11.4584 3.23413V1.55273H4.54187V3.23413C4.54187 3.57208 4.26678 3.84717 3.92877 3.84717C3.5907 3.84717 3.31567 3.57208 3.31567 3.23413V1.55273H3.14154C2.32593 1.55273 1.6626 2.21622 1.6626 3.03168V4.24057H14.3376Z" fill="#8D9098"/>
<path d="M7.72232 12.8164C7.63709 12.8164 7.5532 12.7875 7.48603 12.735C7.42624 12.6884 7.36817 12.6371 7.31369 12.5825L5.42112 10.69C5.36753 10.6364 5.31644 10.5788 5.26932 10.5188C4.67069 9.7569 4.73593 8.66562 5.42112 7.98044C5.7818 7.61981 6.26294 7.42114 6.77588 7.42114C7.14267 7.42114 7.45868 7.63983 7.72229 7.84985C7.98609 7.63971 8.30194 7.42114 8.66858 7.42114C9.18149 7.42114 9.6626 7.61975 10.0233 7.98038C10.7085 8.66562 10.7737 9.75696 10.175 10.5189C10.1281 10.5787 10.077 10.6364 10.0233 10.69L8.13068 12.5826C8.07709 12.6362 8.01944 12.6874 7.95938 12.7345C7.89191 12.7874 7.80774 12.8164 7.72232 12.8164ZM6.77588 8.18912C6.46805 8.18912 6.17975 8.30789 5.96411 8.5235C5.55362 8.93402 5.51456 9.58789 5.87329 10.0444C5.90137 10.0802 5.93195 10.1147 5.96427 10.147L7.72226 11.905L9.48029 10.147C9.5123 10.1149 9.54285 10.0805 9.57096 10.0446L9.57483 10.0398C9.9296 9.58347 9.88938 8.93265 9.48023 8.5235C9.26468 8.30786 8.97641 8.18912 8.66858 8.18912C8.52024 8.18912 8.27301 8.3909 8.0925 8.53824C8.04697 8.57538 8.0026 8.61157 7.95957 8.64536C7.89222 8.6983 7.80799 8.72745 7.72232 8.72745C7.63669 8.72745 7.5524 8.6983 7.48508 8.64542C7.44333 8.61261 7.4003 8.57751 7.35617 8.5415L7.35257 8.5386C7.17185 8.39108 6.92435 8.18912 6.77588 8.18912Z" fill="#8D9098"/>
</svg>
