<svg width="16" height="16" viewBox="0 0 16 16" fill="none" xmlns="http://www.w3.org/2000/svg">
<path d="M15.7355 14.3013L14.848 13.4138C15.1033 13.0049 15.2573 12.5264 15.2573 12.0093C15.2573 10.5391 14.0654 9.34644 12.5948 9.34644C11.1243 9.34644 9.93213 10.5381 9.93213 12.0088C9.93213 13.4795 11.1243 14.6714 12.5946 14.6714C13.1211 14.6714 13.6088 14.5137 14.0219 14.2505L14.9041 15.1321C15.1334 15.3618 15.5059 15.3618 15.7355 15.1321C15.9648 14.9028 15.9648 14.5305 15.7355 14.3013ZM12.5948 13.489V13.4946C11.7737 13.4946 11.1077 12.8289 11.1077 12.0078C11.1077 11.1865 11.7737 10.5205 12.5948 10.5205C13.4161 10.5205 14.0814 11.1865 14.0814 12.0078C14.0785 12.8267 13.4138 13.489 12.5948 13.489Z" fill="#8D9098"/>
<path d="M2.70599 14.2327C1.88947 14.2314 1.2276 13.5698 1.2265 12.7529L1.22443 5.46826H13.908V8.20776H15.1347V3.03223C15.133 1.53857 13.9223 0.328125 12.4287 0.32666H2.70599C1.21222 0.328125 0.00177002 1.53857 0 3.03223V12.7529C0.00439453 14.2449 1.21423 15.4521 2.70599 15.4541H9.24506V14.2327H2.70599ZM1.22443 3.02734C1.22821 2.21191 1.89032 1.55298 2.70599 1.55298H2.88019V3.23438C2.88019 3.573 3.1546 3.84766 3.49323 3.84766C3.83185 3.84766 4.10657 3.573 4.10657 3.23438V1.55298H11.0261V3.23438C11.0261 3.573 11.3006 3.84766 11.6392 3.84766C11.9778 3.84766 12.2525 3.573 12.2525 3.23438V1.55298H12.4267C13.2432 1.55371 13.9052 2.21582 13.906 3.03223V4.24194L1.22443 4.23682V3.02734Z" fill="#8D9098"/>
<path d="M4.93347 7.7959C4.51868 7.7959 4.18262 8.13208 4.18262 8.54663C4.18262 8.96143 4.51868 9.29736 4.93347 9.29736C5.34796 9.29736 5.68433 8.96143 5.68433 8.54663C5.68433 8.13208 5.34796 7.7959 4.93347 7.7959Z" fill="#8D9098"/>
<path d="M4.93347 10.2029C4.51868 10.2029 4.18262 10.5391 4.18262 10.9536C4.18262 11.3684 4.51868 11.7043 4.93347 11.7043C5.34796 11.7043 5.68433 11.3684 5.68433 10.9536C5.68433 10.5391 5.34796 10.2029 4.93347 10.2029Z" fill="#8D9098"/>
<path d="M7.89124 7.7959C7.47668 7.7959 7.14062 8.13208 7.14062 8.54663C7.14062 8.96143 7.47668 9.29736 7.89124 9.29736C8.30603 9.29736 8.64209 8.96143 8.64209 8.54663C8.64209 8.13208 8.30603 7.7959 7.89124 7.7959Z" fill="#8D9098"/>
</svg>
