<svg width="8" height="9" viewBox="0 0 8 9" fill="none" xmlns="http://www.w3.org/2000/svg">
<path d="M1.40393 8.44281C0.629761 8.44281 0 7.81299 0 7.039V1.99591C0 1.22186 0.629761 0.592041 1.40393 0.592041H6.4469C7.22107 0.592041 7.85077 1.22186 7.85077 1.99591V7.039C7.85077 7.81299 7.22107 8.44281 6.4469 8.44281H1.40393ZM0.63623 7.039C0.63623 7.46219 0.980591 7.80655 1.40393 7.80655H6.4469C6.87018 7.80655 7.21436 7.46219 7.21436 7.039V3.25964H0.63623V7.039ZM7.21436 2.62332V1.99591C7.21436 1.57269 6.87018 1.22836 6.4469 1.22836H6.35645V2.10104C6.35645 2.27637 6.21375 2.41919 6.03833 2.41919C5.86285 2.41919 5.72015 2.27637 5.72015 2.10104V1.22836H2.13062V2.10104C2.13062 2.27637 1.98792 2.41919 1.8125 2.41919C1.63696 2.41919 1.49426 2.27637 1.49426 2.10104V1.22836H1.40393C0.980591 1.22836 0.63623 1.57269 0.63623 1.99591V2.62332H7.21436Z" fill="#B8B8B8"/>
<path d="M1.88525 4.5625C1.88525 4.28636 2.10911 4.0625 2.38525 4.0625C2.6614 4.0625 2.88525 4.28636 2.88525 4.5625C2.88525 4.83864 2.6614 5.0625 2.38525 5.0625C2.10911 5.0625 1.88525 4.83864 1.88525 4.5625Z" fill="#B8B8B8"/>
<path d="M2.98584 4.5625C2.98584 4.28636 3.2097 4.0625 3.48584 4.0625C3.76198 4.0625 3.98584 4.28636 3.98584 4.5625C3.98584 4.83864 3.76198 5.0625 3.48584 5.0625C3.2097 5.0625 2.98584 4.83864 2.98584 4.5625Z" fill="#B8B8B8"/>
<path d="M4.08594 4.5625C4.08594 4.28636 4.3098 4.0625 4.58594 4.0625C4.86208 4.0625 5.08594 4.28636 5.08594 4.5625C5.08594 4.83864 4.86208 5.0625 4.58594 5.0625C4.3098 5.0625 4.08594 4.83864 4.08594 4.5625Z" fill="#B8B8B8"/>
<path d="M5.18652 4.5625C5.18652 4.28636 5.41038 4.0625 5.68652 4.0625C5.96267 4.0625 6.18652 4.28636 6.18652 4.5625C6.18652 4.83864 5.96267 5.0625 5.68652 5.0625C5.41038 5.0625 5.18652 4.83864 5.18652 4.5625Z" fill="#B8B8B8"/>
<path d="M1.88525 5.64709C1.88525 5.37095 2.10911 5.14709 2.38525 5.14709C2.6614 5.14709 2.88525 5.37095 2.88525 5.64709C2.88525 5.92324 2.6614 6.14709 2.38525 6.14709C2.10911 6.14709 1.88525 5.92324 1.88525 5.64709Z" fill="#B8B8B8"/>
<path d="M2.98584 5.64709C2.98584 5.37095 3.2097 5.14709 3.48584 5.14709C3.76198 5.14709 3.98584 5.37095 3.98584 5.64709C3.98584 5.92324 3.76198 6.14709 3.48584 6.14709C3.2097 6.14709 2.98584 5.92324 2.98584 5.64709Z" fill="#B8B8B8"/>
<path d="M4.08594 5.64709C4.08594 5.37095 4.3098 5.14709 4.58594 5.14709C4.86208 5.14709 5.08594 5.37095 5.08594 5.64709C5.08594 5.92324 4.86208 6.14709 4.58594 6.14709C4.3098 6.14709 4.08594 5.92324 4.08594 5.64709Z" fill="#B8B8B8"/>
<path d="M5.18652 5.64709C5.18652 5.37095 5.41038 5.14709 5.68652 5.14709C5.96267 5.14709 6.18652 5.37095 6.18652 5.64709C6.18652 5.92324 5.96267 6.14709 5.68652 6.14709C5.41038 6.14709 5.18652 5.92324 5.18652 5.64709Z" fill="#B8B8B8"/>
<path d="M1.88525 6.73181C1.88525 6.45567 2.10911 6.23181 2.38525 6.23181C2.6614 6.23181 2.88525 6.45567 2.88525 6.73181C2.88525 7.00795 2.6614 7.23181 2.38525 7.23181C2.10911 7.23181 1.88525 7.00795 1.88525 6.73181Z" fill="#B8B8B8"/>
<path d="M2.98584 6.73181C2.98584 6.45567 3.2097 6.23181 3.48584 6.23181C3.76198 6.23181 3.98584 6.45567 3.98584 6.73181C3.98584 7.00795 3.76198 7.23181 3.48584 7.23181C3.2097 7.23181 2.98584 7.00795 2.98584 6.73181Z" fill="#B8B8B8"/>
<path d="M4.08594 6.73181C4.08594 6.45567 4.3098 6.23181 4.58594 6.23181C4.86208 6.23181 5.08594 6.45567 5.08594 6.73181C5.08594 7.00795 4.86208 7.23181 4.58594 7.23181C4.3098 7.23181 4.08594 7.00795 4.08594 6.73181Z" fill="#B8B8B8"/>
<path d="M5.18652 6.73181C5.18652 6.45567 5.41038 6.23181 5.68652 6.23181C5.96267 6.23181 6.18652 6.45567 6.18652 6.73181C6.18652 7.00795 5.96267 7.23181 5.68652 7.23181C5.41038 7.23181 5.18652 7.00795 5.18652 6.73181Z" fill="#B8B8B8"/>
</svg>
