<svg width="16" height="16" viewBox="0 0 16 16" fill="none" xmlns="http://www.w3.org/2000/svg">
<path d="M3.03217 15.454C2.31586 15.4532 1.62904 15.1687 1.12207 14.6627C0.615099 14.1566 0.329264 13.4703 0.327148 12.754V3.03702C0.327942 2.31985 0.613186 1.6323 1.1203 1.12518C1.62741 0.618069 2.315 0.332825 3.03217 0.332031H12.7512C13.4683 0.332825 14.1559 0.618069 14.663 1.12518C15.1701 1.6323 15.4554 2.31985 15.4562 3.03702V12.754C15.4541 13.4703 15.1682 14.1566 14.6613 14.6627C14.1543 15.1687 13.4675 15.4532 12.7512 15.454H3.03217ZM1.55316 12.754C1.55369 13.1461 1.70969 13.522 1.98694 13.7993C2.26419 14.0765 2.64007 14.2325 3.03217 14.233H12.7512C13.1433 14.2325 13.5191 14.0765 13.7964 13.7993C14.0736 13.522 14.2296 13.1461 14.2302 12.754V5.47202H1.55115L1.55316 12.754ZM14.2281 4.24603V3.03702C14.2276 2.64493 14.0716 2.26904 13.7944 1.99179C13.5171 1.71454 13.1412 1.55854 12.7491 1.55801H12.5751V3.23901C12.5751 3.40159 12.5106 3.55753 12.3956 3.67249C12.2807 3.78745 12.1247 3.85202 11.9622 3.85202C11.7996 3.85202 11.6436 3.78745 11.5287 3.67249C11.4137 3.55753 11.3491 3.40159 11.3491 3.23901V1.55801H4.43213V3.23901C4.43213 3.40159 4.36758 3.55753 4.25262 3.67249C4.13766 3.78745 3.98173 3.85202 3.81915 3.85202C3.65658 3.85202 3.50064 3.78745 3.38568 3.67249C3.27072 3.55753 3.20618 3.40159 3.20618 3.23901V1.55801H3.03217C2.64059 1.55801 2.26491 1.71309 1.98737 1.98932C1.70982 2.26555 1.553 2.64047 1.55115 3.03204V4.24103L14.2281 4.24603Z" fill="#8D9098"/>
<path d="M5.45998 7.76466C5.45998 7.35017 5.12397 7.01416 4.70948 7.01416C4.29499 7.01416 3.95898 7.35017 3.95898 7.76466C3.95898 8.17915 4.29499 8.51516 4.70948 8.51516C5.12397 8.51516 5.45998 8.17915 5.45998 7.76466Z" fill="#8D9098"/>
<path d="M7.5801 7.76466C7.5801 7.35017 7.24409 7.01416 6.8296 7.01416C6.41511 7.01416 6.0791 7.35017 6.0791 7.76466C6.0791 8.17915 6.41511 8.51516 6.8296 8.51516C7.24409 8.51516 7.5801 8.17915 7.5801 7.76466Z" fill="#8D9098"/>
<path d="M9.70022 7.76466C9.70022 7.35017 9.36421 7.01416 8.94972 7.01416C8.53523 7.01416 8.19922 7.35017 8.19922 7.76466C8.19922 8.17915 8.53523 8.51516 8.94972 8.51516C9.36421 8.51516 9.70022 8.17915 9.70022 7.76466Z" fill="#8D9098"/>
<path d="M11.8208 7.76466C11.8208 7.35017 11.4848 7.01416 11.0703 7.01416C10.6558 7.01416 10.3198 7.35017 10.3198 7.76466C10.3198 8.17915 10.6558 8.51516 11.0703 8.51516C11.4848 8.51516 11.8208 8.17915 11.8208 7.76466Z" fill="#8D9098"/>
<path d="M5.45998 9.85475C5.45998 9.44026 5.12397 9.10425 4.70948 9.10425C4.29499 9.10425 3.95898 9.44026 3.95898 9.85475C3.95898 10.2692 4.29499 10.6052 4.70948 10.6052C5.12397 10.6052 5.45998 10.2692 5.45998 9.85475Z" fill="#8D9098"/>
<path d="M7.5801 9.85475C7.5801 9.44026 7.24409 9.10425 6.8296 9.10425C6.41511 9.10425 6.0791 9.44026 6.0791 9.85475C6.0791 10.2692 6.41511 10.6052 6.8296 10.6052C7.24409 10.6052 7.5801 10.2692 7.5801 9.85475Z" fill="#8D9098"/>
<path d="M9.70022 9.85475C9.70022 9.44026 9.36421 9.10425 8.94972 9.10425C8.53523 9.10425 8.19922 9.44026 8.19922 9.85475C8.19922 10.2692 8.53523 10.6052 8.94972 10.6052C9.36421 10.6052 9.70022 10.2692 9.70022 9.85475Z" fill="#8D9098"/>
<path d="M11.8208 9.85475C11.8208 9.44026 11.4848 9.10425 11.0703 9.10425C10.6558 9.10425 10.3198 9.44026 10.3198 9.85475C10.3198 10.2692 10.6558 10.6052 11.0703 10.6052C11.4848 10.6052 11.8208 10.2692 11.8208 9.85475Z" fill="#8D9098"/>
<path d="M5.45998 11.9446C5.45998 11.5301 5.12397 11.1941 4.70948 11.1941C4.29499 11.1941 3.95898 11.5301 3.95898 11.9446C3.95898 12.3591 4.29499 12.6951 4.70948 12.6951C5.12397 12.6951 5.45998 12.3591 5.45998 11.9446Z" fill="#8D9098"/>
<path d="M7.5801 11.9446C7.5801 11.5301 7.24409 11.1941 6.8296 11.1941C6.41511 11.1941 6.0791 11.5301 6.0791 11.9446C6.0791 12.3591 6.41511 12.6951 6.8296 12.6951C7.24409 12.6951 7.5801 12.3591 7.5801 11.9446Z" fill="#8D9098"/>
<path d="M9.70022 11.9446C9.70022 11.5301 9.36421 11.1941 8.94972 11.1941C8.53523 11.1941 8.19922 11.5301 8.19922 11.9446C8.19922 12.3591 8.53523 12.6951 8.94972 12.6951C9.36421 12.6951 9.70022 12.3591 9.70022 11.9446Z" fill="#8D9098"/>
<path d="M11.8208 11.9446C11.8208 11.5301 11.4848 11.1941 11.0703 11.1941C10.6558 11.1941 10.3198 11.5301 10.3198 11.9446C10.3198 12.3591 10.6558 12.6951 11.0703 12.6951C11.4848 12.6951 11.8208 12.3591 11.8208 11.9446Z" fill="#8D9098"/>
</svg>
